<mxfile host="app.diagrams.net" modified="2023-11-23T20:22:08.722Z" agent="Mozilla/5.0 (Windows NT 10.0; Win64; x64) AppleWebKit/537.36 (KHTML, like Gecko) Chrome/118.0.0.0 Safari/537.36 OPR/104.0.0.0 (Edition Yx GX)" etag="a6Zf6fdvQrGpBNiNuXPx" version="22.1.3" type="github">
  <diagram name="Страница — 1" id="_QN5PS_I-wz9nRqH9soi">
    <mxGraphModel dx="2588" dy="2038" grid="1" gridSize="10" guides="1" tooltips="1" connect="1" arrows="1" fold="1" page="1" pageScale="1" pageWidth="827" pageHeight="1169" math="0" shadow="0">
      <root>
        <mxCell id="0" />
        <mxCell id="1" parent="0" />
        <mxCell id="_OMWkdVbkcno03ulWTb--2" value="PercentDiscounts" style="html=1;whiteSpace=wrap;" parent="1" vertex="1">
          <mxGeometry x="455" y="763" width="110" height="50" as="geometry" />
        </mxCell>
        <mxCell id="_OMWkdVbkcno03ulWTb--3" value="PointsDiscounts" style="html=1;whiteSpace=wrap;" parent="1" vertex="1">
          <mxGeometry x="585" y="763" width="110" height="50" as="geometry" />
        </mxCell>
        <mxCell id="_OMWkdVbkcno03ulWTb--4" value="«enumeration»&lt;br&gt;OrderStatus" style="html=1;whiteSpace=wrap;" parent="1" vertex="1">
          <mxGeometry x="140" y="763" width="110" height="50" as="geometry" />
        </mxCell>
        <mxCell id="_OMWkdVbkcno03ulWTb--6" value="Order" style="html=1;whiteSpace=wrap;" parent="1" vertex="1">
          <mxGeometry x="140" y="670" width="110" height="50" as="geometry" />
        </mxCell>
        <mxCell id="_OMWkdVbkcno03ulWTb--9" value="Cart" style="html=1;whiteSpace=wrap;" parent="1" vertex="1">
          <mxGeometry x="394" y="670" width="110" height="50" as="geometry" />
        </mxCell>
        <mxCell id="_OMWkdVbkcno03ulWTb--10" value="Customer" style="html=1;whiteSpace=wrap;" parent="1" vertex="1">
          <mxGeometry x="270" y="570" width="110" height="50" as="geometry" />
        </mxCell>
        <mxCell id="_OMWkdVbkcno03ulWTb--11" value="«interface»&lt;br&gt;IDiscount" style="html=1;whiteSpace=wrap;" parent="1" vertex="1">
          <mxGeometry x="520" y="670" width="110" height="50" as="geometry" />
        </mxCell>
        <mxCell id="mFB_95r138rPl2xuF4Oa-31" value="Address" style="html=1;whiteSpace=wrap;" parent="1" vertex="1">
          <mxGeometry x="270" y="670" width="110" height="50" as="geometry" />
        </mxCell>
        <mxCell id="mFB_95r138rPl2xuF4Oa-33" value="1" style="text;html=1;align=center;verticalAlign=middle;resizable=0;points=[];autosize=1;strokeColor=none;fillColor=none;" parent="1" vertex="1">
          <mxGeometry x="176" y="646" width="30" height="30" as="geometry" />
        </mxCell>
        <mxCell id="mFB_95r138rPl2xuF4Oa-35" value="1" style="text;html=1;align=center;verticalAlign=middle;resizable=0;points=[];autosize=1;strokeColor=none;fillColor=none;" parent="1" vertex="1">
          <mxGeometry x="320" y="646" width="30" height="30" as="geometry" />
        </mxCell>
        <mxCell id="mFB_95r138rPl2xuF4Oa-37" value="1" style="text;html=1;align=center;verticalAlign=middle;resizable=0;points=[];autosize=1;strokeColor=none;fillColor=none;" parent="1" vertex="1">
          <mxGeometry x="440" y="646" width="30" height="30" as="geometry" />
        </mxCell>
        <mxCell id="mFB_95r138rPl2xuF4Oa-38" value="" style="endArrow=block;endFill=0;endSize=12;html=1;rounded=0;exitX=0;exitY=0.5;exitDx=0;exitDy=0;entryX=1;entryY=0.5;entryDx=0;entryDy=0;" parent="1" source="_OMWkdVbkcno03ulWTb--6" target="0bKatuaIhxFgEw6AGKP7-3" edge="1">
          <mxGeometry width="160" relative="1" as="geometry">
            <mxPoint x="100" y="695" as="sourcePoint" />
            <mxPoint x="100" y="694" as="targetPoint" />
          </mxGeometry>
        </mxCell>
        <mxCell id="mFB_95r138rPl2xuF4Oa-40" value="1" style="text;html=1;align=center;verticalAlign=middle;resizable=0;points=[];autosize=1;strokeColor=none;fillColor=none;" parent="1" vertex="1">
          <mxGeometry x="572" y="646" width="30" height="30" as="geometry" />
        </mxCell>
        <mxCell id="mFB_95r138rPl2xuF4Oa-41" value="" style="endArrow=block;dashed=1;endFill=0;endSize=12;html=1;rounded=0;exitX=0.5;exitY=0;exitDx=0;exitDy=0;entryX=0.5;entryY=1;entryDx=0;entryDy=0;edgeStyle=orthogonalEdgeStyle;" parent="1" source="_OMWkdVbkcno03ulWTb--2" target="_OMWkdVbkcno03ulWTb--11" edge="1">
          <mxGeometry width="160" relative="1" as="geometry">
            <mxPoint x="460" y="560" as="sourcePoint" />
            <mxPoint x="620" y="560" as="targetPoint" />
          </mxGeometry>
        </mxCell>
        <mxCell id="mFB_95r138rPl2xuF4Oa-42" value="" style="endArrow=block;dashed=1;endFill=0;endSize=12;html=1;rounded=0;exitX=0.5;exitY=0;exitDx=0;exitDy=0;entryX=0.5;entryY=1;entryDx=0;entryDy=0;edgeStyle=orthogonalEdgeStyle;" parent="1" source="_OMWkdVbkcno03ulWTb--3" target="_OMWkdVbkcno03ulWTb--11" edge="1">
          <mxGeometry width="160" relative="1" as="geometry">
            <mxPoint x="460" y="560" as="sourcePoint" />
            <mxPoint x="620" y="560" as="targetPoint" />
          </mxGeometry>
        </mxCell>
        <mxCell id="mFB_95r138rPl2xuF4Oa-74" value="*" style="text;html=1;align=center;verticalAlign=middle;resizable=0;points=[];autosize=1;strokeColor=none;fillColor=none;" parent="1" vertex="1">
          <mxGeometry x="1780" y="1055" width="30" height="30" as="geometry" />
        </mxCell>
        <mxCell id="0bKatuaIhxFgEw6AGKP7-2" value="Use" style="endArrow=open;endSize=12;dashed=1;html=1;rounded=0;exitX=0.5;exitY=1;exitDx=0;exitDy=0;entryX=0.5;entryY=0;entryDx=0;entryDy=0;" parent="1" source="_OMWkdVbkcno03ulWTb--6" target="_OMWkdVbkcno03ulWTb--4" edge="1">
          <mxGeometry width="160" relative="1" as="geometry">
            <mxPoint x="20" y="746" as="sourcePoint" />
            <mxPoint x="240" y="736" as="targetPoint" />
          </mxGeometry>
        </mxCell>
        <mxCell id="0bKatuaIhxFgEw6AGKP7-3" value="PriorityOrder" style="html=1;whiteSpace=wrap;" parent="1" vertex="1">
          <mxGeometry x="-10" y="670" width="110" height="50" as="geometry" />
        </mxCell>
        <mxCell id="0bKatuaIhxFgEw6AGKP7-4" value="1" style="text;html=1;align=center;verticalAlign=middle;resizable=0;points=[];autosize=1;strokeColor=none;fillColor=none;" parent="1" vertex="1">
          <mxGeometry x="290" y="616" width="30" height="30" as="geometry" />
        </mxCell>
        <mxCell id="0bKatuaIhxFgEw6AGKP7-5" value="1" style="text;html=1;align=center;verticalAlign=middle;resizable=0;points=[];autosize=1;strokeColor=none;fillColor=none;" parent="1" vertex="1">
          <mxGeometry x="378" y="570" width="30" height="30" as="geometry" />
        </mxCell>
        <mxCell id="0bKatuaIhxFgEw6AGKP7-13" value="*" style="text;html=1;align=center;verticalAlign=middle;resizable=0;points=[];autosize=1;strokeColor=none;fillColor=none;" parent="1" vertex="1">
          <mxGeometry x="230" y="306" width="30" height="30" as="geometry" />
        </mxCell>
        <mxCell id="4PrEoWA6GMoAb4wmeO9J-1" value="Item" style="rounded=0;whiteSpace=wrap;html=1;" parent="1" vertex="1">
          <mxGeometry x="110" width="90" height="40" as="geometry" />
        </mxCell>
        <mxCell id="4PrEoWA6GMoAb4wmeO9J-2" value="Customer" style="rounded=0;whiteSpace=wrap;html=1;" parent="1" vertex="1">
          <mxGeometry x="210" width="90" height="40" as="geometry" />
        </mxCell>
        <mxCell id="4PrEoWA6GMoAb4wmeO9J-3" value="CartsTab" style="rounded=0;whiteSpace=wrap;html=1;" parent="1" vertex="1">
          <mxGeometry x="110" y="90" width="90" height="40" as="geometry" />
        </mxCell>
        <mxCell id="4PrEoWA6GMoAb4wmeO9J-4" value="Address" style="rounded=0;whiteSpace=wrap;html=1;" parent="1" vertex="1">
          <mxGeometry x="474" width="100" height="40" as="geometry" />
        </mxCell>
        <mxCell id="4PrEoWA6GMoAb4wmeO9J-11" value="CustomerTab" style="rounded=0;whiteSpace=wrap;html=1;" parent="1" vertex="1">
          <mxGeometry x="329" y="90" width="94" height="40" as="geometry" />
        </mxCell>
        <mxCell id="4PrEoWA6GMoAb4wmeO9J-12" value="ItemsTab" style="rounded=0;whiteSpace=wrap;html=1;" parent="1" vertex="1">
          <mxGeometry x="216" y="90" width="84" height="40" as="geometry" />
        </mxCell>
        <mxCell id="4PrEoWA6GMoAb4wmeO9J-35" value="" style="endArrow=diamondThin;endFill=0;endSize=24;html=1;rounded=0;entryX=0.75;entryY=0;entryDx=0;entryDy=0;exitX=0.5;exitY=1;exitDx=0;exitDy=0;" parent="1" edge="1">
          <mxGeometry width="160" relative="1" as="geometry">
            <mxPoint x="255" y="40" as="sourcePoint" />
            <mxPoint x="177.5" y="90" as="targetPoint" />
            <Array as="points">
              <mxPoint x="254" y="60" />
              <mxPoint x="178" y="60" />
            </Array>
          </mxGeometry>
        </mxCell>
        <mxCell id="4PrEoWA6GMoAb4wmeO9J-43" value="1" style="edgeLabel;html=1;align=center;verticalAlign=middle;resizable=0;points=[];" parent="4PrEoWA6GMoAb4wmeO9J-35" vertex="1" connectable="0">
          <mxGeometry x="0.7712" relative="1" as="geometry">
            <mxPoint x="-12" y="4" as="offset" />
          </mxGeometry>
        </mxCell>
        <mxCell id="4PrEoWA6GMoAb4wmeO9J-46" value="1..*" style="edgeLabel;html=1;align=center;verticalAlign=middle;resizable=0;points=[];" parent="4PrEoWA6GMoAb4wmeO9J-35" vertex="1" connectable="0">
          <mxGeometry x="-0.9039" y="-2" relative="1" as="geometry">
            <mxPoint x="-7" y="1" as="offset" />
          </mxGeometry>
        </mxCell>
        <mxCell id="4PrEoWA6GMoAb4wmeO9J-36" value="" style="endArrow=diamondThin;endFill=0;endSize=24;html=1;rounded=0;entryX=0.75;entryY=0;entryDx=0;entryDy=0;exitX=0.75;exitY=1;exitDx=0;exitDy=0;" parent="1" source="4PrEoWA6GMoAb4wmeO9J-2" target="4PrEoWA6GMoAb4wmeO9J-12" edge="1">
          <mxGeometry width="160" relative="1" as="geometry">
            <mxPoint x="260" y="40" as="sourcePoint" />
            <mxPoint x="460" y="80" as="targetPoint" />
          </mxGeometry>
        </mxCell>
        <mxCell id="4PrEoWA6GMoAb4wmeO9J-45" value="1" style="edgeLabel;html=1;align=center;verticalAlign=middle;resizable=0;points=[];" parent="4PrEoWA6GMoAb4wmeO9J-36" vertex="1" connectable="0">
          <mxGeometry x="0.6115" y="-4" relative="1" as="geometry">
            <mxPoint x="-9" y="1" as="offset" />
          </mxGeometry>
        </mxCell>
        <mxCell id="4PrEoWA6GMoAb4wmeO9J-47" value="1..*" style="edgeLabel;html=1;align=center;verticalAlign=middle;resizable=0;points=[];" parent="4PrEoWA6GMoAb4wmeO9J-36" vertex="1" connectable="0">
          <mxGeometry x="-0.5737" y="-3" relative="1" as="geometry">
            <mxPoint x="-7" y="-4" as="offset" />
          </mxGeometry>
        </mxCell>
        <mxCell id="4PrEoWA6GMoAb4wmeO9J-37" value="" style="endArrow=diamondThin;endFill=0;endSize=24;html=1;rounded=0;exitX=0.25;exitY=1;exitDx=0;exitDy=0;entryX=0.25;entryY=0;entryDx=0;entryDy=0;" parent="1" source="4PrEoWA6GMoAb4wmeO9J-1" target="4PrEoWA6GMoAb4wmeO9J-3" edge="1">
          <mxGeometry width="160" relative="1" as="geometry">
            <mxPoint x="300" y="80" as="sourcePoint" />
            <mxPoint x="460" y="80" as="targetPoint" />
          </mxGeometry>
        </mxCell>
        <mxCell id="4PrEoWA6GMoAb4wmeO9J-40" value="1..*" style="edgeLabel;html=1;align=center;verticalAlign=middle;resizable=0;points=[];" parent="4PrEoWA6GMoAb4wmeO9J-37" vertex="1" connectable="0">
          <mxGeometry x="0.0372" y="1" relative="1" as="geometry">
            <mxPoint x="-13" y="-20" as="offset" />
          </mxGeometry>
        </mxCell>
        <mxCell id="4PrEoWA6GMoAb4wmeO9J-41" value="1" style="edgeLabel;html=1;align=center;verticalAlign=middle;resizable=0;points=[];" parent="4PrEoWA6GMoAb4wmeO9J-37" vertex="1" connectable="0">
          <mxGeometry x="0.3407" y="1" relative="1" as="geometry">
            <mxPoint x="-14" y="8" as="offset" />
          </mxGeometry>
        </mxCell>
        <mxCell id="4PrEoWA6GMoAb4wmeO9J-38" value="" style="endArrow=diamondThin;endFill=0;endSize=24;html=1;rounded=0;exitX=0.5;exitY=1;exitDx=0;exitDy=0;" parent="1" source="4PrEoWA6GMoAb4wmeO9J-1" edge="1">
          <mxGeometry width="160" relative="1" as="geometry">
            <mxPoint x="300" y="80" as="sourcePoint" />
            <mxPoint x="240" y="90" as="targetPoint" />
            <Array as="points">
              <mxPoint x="155" y="50" />
              <mxPoint x="200" y="50" />
              <mxPoint x="240" y="50" />
            </Array>
          </mxGeometry>
        </mxCell>
        <mxCell id="4PrEoWA6GMoAb4wmeO9J-44" value="1" style="edgeLabel;html=1;align=center;verticalAlign=middle;resizable=0;points=[];" parent="4PrEoWA6GMoAb4wmeO9J-38" vertex="1" connectable="0">
          <mxGeometry x="0.8375" y="3" relative="1" as="geometry">
            <mxPoint x="-16" y="3" as="offset" />
          </mxGeometry>
        </mxCell>
        <mxCell id="4PrEoWA6GMoAb4wmeO9J-48" value="1..*" style="edgeLabel;html=1;align=center;verticalAlign=middle;resizable=0;points=[];" parent="4PrEoWA6GMoAb4wmeO9J-38" vertex="1" connectable="0">
          <mxGeometry x="-0.9346" y="1" relative="1" as="geometry">
            <mxPoint x="-13" y="3" as="offset" />
          </mxGeometry>
        </mxCell>
        <mxCell id="4PrEoWA6GMoAb4wmeO9J-49" value="" style="endArrow=diamondThin;endFill=0;endSize=24;html=1;rounded=0;entryX=0.25;entryY=0;entryDx=0;entryDy=0;" parent="1" target="4PrEoWA6GMoAb4wmeO9J-11" edge="1">
          <mxGeometry width="160" relative="1" as="geometry">
            <mxPoint x="300" y="40" as="sourcePoint" />
            <mxPoint x="450" y="210" as="targetPoint" />
          </mxGeometry>
        </mxCell>
        <mxCell id="4PrEoWA6GMoAb4wmeO9J-53" value="1..*" style="edgeLabel;html=1;align=center;verticalAlign=middle;resizable=0;points=[];" parent="4PrEoWA6GMoAb4wmeO9J-49" vertex="1" connectable="0">
          <mxGeometry x="-0.5296" y="-2" relative="1" as="geometry">
            <mxPoint x="-21" y="-7" as="offset" />
          </mxGeometry>
        </mxCell>
        <mxCell id="4PrEoWA6GMoAb4wmeO9J-57" value="1" style="edgeLabel;html=1;align=center;verticalAlign=middle;resizable=0;points=[];" parent="4PrEoWA6GMoAb4wmeO9J-49" vertex="1" connectable="0">
          <mxGeometry x="0.6095" relative="1" as="geometry">
            <mxPoint x="-12" as="offset" />
          </mxGeometry>
        </mxCell>
        <mxCell id="4PrEoWA6GMoAb4wmeO9J-50" value="AddressControl" style="whiteSpace=wrap;html=1;" parent="1" vertex="1">
          <mxGeometry x="475" y="90" width="99" height="40" as="geometry" />
        </mxCell>
        <mxCell id="4PrEoWA6GMoAb4wmeO9J-51" value="" style="endArrow=diamondThin;endFill=0;endSize=24;html=1;rounded=0;entryX=0.5;entryY=0;entryDx=0;entryDy=0;" parent="1" target="4PrEoWA6GMoAb4wmeO9J-50" edge="1">
          <mxGeometry width="160" relative="1" as="geometry">
            <mxPoint x="524" y="40" as="sourcePoint" />
            <mxPoint x="653" y="210" as="targetPoint" />
          </mxGeometry>
        </mxCell>
        <mxCell id="4PrEoWA6GMoAb4wmeO9J-59" value="1" style="edgeLabel;html=1;align=center;verticalAlign=middle;resizable=0;points=[];" parent="4PrEoWA6GMoAb4wmeO9J-51" vertex="1" connectable="0">
          <mxGeometry x="0.5876" y="2" relative="1" as="geometry">
            <mxPoint x="10" as="offset" />
          </mxGeometry>
        </mxCell>
        <mxCell id="4PrEoWA6GMoAb4wmeO9J-60" value="1" style="edgeLabel;html=1;align=center;verticalAlign=middle;resizable=0;points=[];" parent="4PrEoWA6GMoAb4wmeO9J-51" vertex="1" connectable="0">
          <mxGeometry x="-0.7126" y="2" relative="1" as="geometry">
            <mxPoint x="10" as="offset" />
          </mxGeometry>
        </mxCell>
        <mxCell id="4PrEoWA6GMoAb4wmeO9J-71" value="ItemsTab" style="whiteSpace=wrap;html=1;" parent="1" vertex="1">
          <mxGeometry y="90" width="90" height="40" as="geometry" />
        </mxCell>
        <mxCell id="4PrEoWA6GMoAb4wmeO9J-73" value="" style="endArrow=diamondThin;endFill=0;endSize=24;html=1;rounded=0;entryX=0.5;entryY=0;entryDx=0;entryDy=0;exitX=0;exitY=0.5;exitDx=0;exitDy=0;" parent="1" source="4PrEoWA6GMoAb4wmeO9J-1" target="4PrEoWA6GMoAb4wmeO9J-71" edge="1">
          <mxGeometry width="160" relative="1" as="geometry">
            <mxPoint x="-190" y="100" as="sourcePoint" />
            <mxPoint x="-30" y="100" as="targetPoint" />
          </mxGeometry>
        </mxCell>
        <mxCell id="4PrEoWA6GMoAb4wmeO9J-74" value="1" style="edgeLabel;html=1;align=center;verticalAlign=middle;resizable=0;points=[];" parent="4PrEoWA6GMoAb4wmeO9J-73" vertex="1" connectable="0">
          <mxGeometry x="0.5954" y="1" relative="1" as="geometry">
            <mxPoint x="6" y="5" as="offset" />
          </mxGeometry>
        </mxCell>
        <mxCell id="4PrEoWA6GMoAb4wmeO9J-75" value="1...*" style="text;html=1;align=center;verticalAlign=middle;resizable=0;points=[];autosize=1;strokeColor=none;fillColor=none;" parent="1" vertex="1">
          <mxGeometry x="75" width="40" height="30" as="geometry" />
        </mxCell>
        <mxCell id="4PrEoWA6GMoAb4wmeO9J-78" value="AddressControl" style="whiteSpace=wrap;html=1;" parent="1" vertex="1">
          <mxGeometry x="650" width="100" height="40" as="geometry" />
        </mxCell>
        <mxCell id="4PrEoWA6GMoAb4wmeO9J-82" value="" style="endArrow=diamondThin;endFill=0;endSize=24;html=1;rounded=0;entryX=0;entryY=0.5;entryDx=0;entryDy=0;" parent="1" target="4PrEoWA6GMoAb4wmeO9J-78" edge="1">
          <mxGeometry width="160" relative="1" as="geometry">
            <mxPoint x="574" y="20" as="sourcePoint" />
            <mxPoint x="770" y="130" as="targetPoint" />
          </mxGeometry>
        </mxCell>
        <mxCell id="uIo9gQGOJGdy33vKIJ3K-2" value="&lt;br&gt;1&lt;br&gt;" style="edgeLabel;html=1;align=center;verticalAlign=middle;resizable=0;points=[];" parent="4PrEoWA6GMoAb4wmeO9J-82" vertex="1" connectable="0">
          <mxGeometry x="-0.7222" y="1" relative="1" as="geometry">
            <mxPoint x="-7" y="-14" as="offset" />
          </mxGeometry>
        </mxCell>
        <mxCell id="uIo9gQGOJGdy33vKIJ3K-3" value="&lt;br&gt;1&lt;br&gt;" style="edgeLabel;html=1;align=center;verticalAlign=middle;resizable=0;points=[];" parent="4PrEoWA6GMoAb4wmeO9J-82" vertex="1" connectable="0">
          <mxGeometry x="0.4561" relative="1" as="geometry">
            <mxPoint x="16" y="-18" as="offset" />
          </mxGeometry>
        </mxCell>
        <mxCell id="4PrEoWA6GMoAb4wmeO9J-83" value="OrdersTab" style="whiteSpace=wrap;html=1;" parent="1" vertex="1">
          <mxGeometry x="670" y="90" width="90" height="40" as="geometry" />
        </mxCell>
        <mxCell id="4PrEoWA6GMoAb4wmeO9J-84" value="" style="endArrow=diamondThin;endFill=1;endSize=24;html=1;rounded=0;entryX=0.5;entryY=0;entryDx=0;entryDy=0;exitX=0.5;exitY=1;exitDx=0;exitDy=0;" parent="1" source="4PrEoWA6GMoAb4wmeO9J-78" target="4PrEoWA6GMoAb4wmeO9J-83" edge="1">
          <mxGeometry width="160" relative="1" as="geometry">
            <mxPoint x="610" y="130" as="sourcePoint" />
            <mxPoint x="770" y="130" as="targetPoint" />
          </mxGeometry>
        </mxCell>
        <mxCell id="4PrEoWA6GMoAb4wmeO9J-85" value="PriorityOrders" style="whiteSpace=wrap;html=1;" parent="1" vertex="1">
          <mxGeometry x="800" y="70" width="105" height="40" as="geometry" />
        </mxCell>
        <mxCell id="uIo9gQGOJGdy33vKIJ3K-5" value="Order" style="whiteSpace=wrap;html=1;" parent="1" vertex="1">
          <mxGeometry x="800" y="20" width="110" height="40" as="geometry" />
        </mxCell>
        <mxCell id="uIo9gQGOJGdy33vKIJ3K-6" value="Customer" style="whiteSpace=wrap;html=1;" parent="1" vertex="1">
          <mxGeometry x="800" y="130" width="110" height="40" as="geometry" />
        </mxCell>
        <mxCell id="uIo9gQGOJGdy33vKIJ3K-7" value="" style="endArrow=diamondThin;endFill=0;endSize=24;html=1;rounded=0;entryX=1;entryY=1;entryDx=0;entryDy=0;exitX=0;exitY=0.5;exitDx=0;exitDy=0;" parent="1" source="uIo9gQGOJGdy33vKIJ3K-6" target="4PrEoWA6GMoAb4wmeO9J-83" edge="1">
          <mxGeometry width="160" relative="1" as="geometry">
            <mxPoint x="800" y="230" as="sourcePoint" />
            <mxPoint x="960" y="230" as="targetPoint" />
          </mxGeometry>
        </mxCell>
        <mxCell id="uIo9gQGOJGdy33vKIJ3K-11" value="" style="endArrow=diamondThin;endFill=0;endSize=24;html=1;rounded=0;entryX=1;entryY=0;entryDx=0;entryDy=0;exitX=0;exitY=0.5;exitDx=0;exitDy=0;" parent="1" source="uIo9gQGOJGdy33vKIJ3K-5" target="4PrEoWA6GMoAb4wmeO9J-83" edge="1">
          <mxGeometry width="160" relative="1" as="geometry">
            <mxPoint x="800" y="230" as="sourcePoint" />
            <mxPoint x="960" y="230" as="targetPoint" />
          </mxGeometry>
        </mxCell>
        <mxCell id="uIo9gQGOJGdy33vKIJ3K-13" value="1..*" style="edgeLabel;html=1;align=center;verticalAlign=middle;resizable=0;points=[];" parent="uIo9gQGOJGdy33vKIJ3K-11" vertex="1" connectable="0">
          <mxGeometry x="-0.6314" y="2" relative="1" as="geometry">
            <mxPoint x="-4" y="-21" as="offset" />
          </mxGeometry>
        </mxCell>
        <mxCell id="uIo9gQGOJGdy33vKIJ3K-16" value="1" style="edgeLabel;html=1;align=center;verticalAlign=middle;resizable=0;points=[];" parent="uIo9gQGOJGdy33vKIJ3K-11" vertex="1" connectable="0">
          <mxGeometry x="0.5652" y="7" relative="1" as="geometry">
            <mxPoint x="-19" y="-4" as="offset" />
          </mxGeometry>
        </mxCell>
        <mxCell id="uIo9gQGOJGdy33vKIJ3K-12" value="" style="endArrow=diamondThin;endFill=0;endSize=24;html=1;rounded=0;exitX=0;exitY=0.5;exitDx=0;exitDy=0;entryX=1;entryY=0.5;entryDx=0;entryDy=0;" parent="1" source="4PrEoWA6GMoAb4wmeO9J-85" target="4PrEoWA6GMoAb4wmeO9J-83" edge="1">
          <mxGeometry width="160" relative="1" as="geometry">
            <mxPoint x="800" y="230" as="sourcePoint" />
            <mxPoint x="960" y="230" as="targetPoint" />
          </mxGeometry>
        </mxCell>
        <mxCell id="uIo9gQGOJGdy33vKIJ3K-14" value="1..*" style="edgeLabel;html=1;align=center;verticalAlign=middle;resizable=0;points=[];" parent="1" vertex="1" connectable="0">
          <mxGeometry x="788.9971255268105" y="79.99917111150306" as="geometry" />
        </mxCell>
        <mxCell id="uIo9gQGOJGdy33vKIJ3K-15" value="1..*" style="edgeLabel;html=1;align=center;verticalAlign=middle;resizable=0;points=[];" parent="1" vertex="1" connectable="0">
          <mxGeometry x="798.9971255268105" y="95.99917111150306" as="geometry">
            <mxPoint x="-9" y="39" as="offset" />
          </mxGeometry>
        </mxCell>
        <mxCell id="uIo9gQGOJGdy33vKIJ3K-17" value="1" style="edgeLabel;html=1;align=center;verticalAlign=middle;resizable=0;points=[];rotation=0;" parent="1" vertex="1" connectable="0">
          <mxGeometry x="753.5807738514679" y="89.38679479241387" as="geometry">
            <mxPoint x="10" y="5" as="offset" />
          </mxGeometry>
        </mxCell>
        <mxCell id="uIo9gQGOJGdy33vKIJ3K-18" value="1" style="edgeLabel;html=1;align=center;verticalAlign=middle;resizable=0;points=[];" parent="1" vertex="1" connectable="0">
          <mxGeometry x="797.5807738514679" y="99.38679479241387" as="geometry">
            <mxPoint x="-34" y="22" as="offset" />
          </mxGeometry>
        </mxCell>
        <mxCell id="uIo9gQGOJGdy33vKIJ3K-20" value="" style="endArrow=diamondThin;endFill=1;endSize=24;html=1;rounded=0;entryX=0.5;entryY=0;entryDx=0;entryDy=0;exitX=0.25;exitY=1;exitDx=0;exitDy=0;" parent="1" source="4PrEoWA6GMoAb4wmeO9J-78" target="uIo9gQGOJGdy33vKIJ3K-21" edge="1">
          <mxGeometry width="160" relative="1" as="geometry">
            <mxPoint x="870" y="180" as="sourcePoint" />
            <mxPoint x="1030" y="180" as="targetPoint" />
          </mxGeometry>
        </mxCell>
        <mxCell id="uIo9gQGOJGdy33vKIJ3K-21" value="PriorityOrderTab" style="whiteSpace=wrap;html=1;" parent="1" vertex="1">
          <mxGeometry x="595" y="150" width="120" height="40" as="geometry" />
        </mxCell>
        <mxCell id="uIo9gQGOJGdy33vKIJ3K-23" value="" style="endArrow=diamondThin;endFill=0;endSize=24;html=1;rounded=0;exitX=0;exitY=0.5;exitDx=0;exitDy=0;entryX=1;entryY=0.5;entryDx=0;entryDy=0;" parent="1" source="uIo9gQGOJGdy33vKIJ3K-5" target="uIo9gQGOJGdy33vKIJ3K-21" edge="1">
          <mxGeometry width="160" relative="1" as="geometry">
            <mxPoint x="870" y="100" as="sourcePoint" />
            <mxPoint x="1030" y="100" as="targetPoint" />
            <Array as="points">
              <mxPoint x="770" y="40" />
              <mxPoint x="770" y="170" />
            </Array>
          </mxGeometry>
        </mxCell>
        <mxCell id="uIo9gQGOJGdy33vKIJ3K-28" value="" style="endArrow=diamondThin;endFill=0;endSize=24;html=1;rounded=0;entryX=1;entryY=0.25;entryDx=0;entryDy=0;exitX=0;exitY=0.75;exitDx=0;exitDy=0;" parent="1" source="4PrEoWA6GMoAb4wmeO9J-85" target="uIo9gQGOJGdy33vKIJ3K-21" edge="1">
          <mxGeometry width="160" relative="1" as="geometry">
            <mxPoint x="830" y="90" as="sourcePoint" />
            <mxPoint x="990" y="90" as="targetPoint" />
            <Array as="points">
              <mxPoint x="780" y="160" />
            </Array>
          </mxGeometry>
        </mxCell>
        <mxCell id="uIo9gQGOJGdy33vKIJ3K-29" value="" style="endArrow=diamondThin;endFill=0;endSize=24;html=1;rounded=0;entryX=1;entryY=0.75;entryDx=0;entryDy=0;exitX=0;exitY=0.75;exitDx=0;exitDy=0;" parent="1" source="uIo9gQGOJGdy33vKIJ3K-6" target="uIo9gQGOJGdy33vKIJ3K-21" edge="1">
          <mxGeometry width="160" relative="1" as="geometry">
            <mxPoint x="830" y="90" as="sourcePoint" />
            <mxPoint x="990" y="90" as="targetPoint" />
            <Array as="points">
              <mxPoint x="790" y="160" />
              <mxPoint x="780" y="160" />
              <mxPoint x="780" y="180" />
            </Array>
          </mxGeometry>
        </mxCell>
        <mxCell id="uIo9gQGOJGdy33vKIJ3K-31" value="" style="endArrow=diamondThin;endFill=1;endSize=24;html=1;rounded=0;entryX=1;entryY=0.5;entryDx=0;entryDy=0;exitX=0.5;exitY=1;exitDx=0;exitDy=0;" parent="1" source="uIo9gQGOJGdy33vKIJ3K-21" target="uIo9gQGOJGdy33vKIJ3K-32" edge="1">
          <mxGeometry width="160" relative="1" as="geometry">
            <mxPoint x="700" y="280" as="sourcePoint" />
            <mxPoint x="860" y="280" as="targetPoint" />
            <Array as="points">
              <mxPoint x="655" y="290" />
            </Array>
          </mxGeometry>
        </mxCell>
        <mxCell id="uIo9gQGOJGdy33vKIJ3K-32" value="MainForm" style="whiteSpace=wrap;html=1;" parent="1" vertex="1">
          <mxGeometry x="350" y="260" width="120" height="60" as="geometry" />
        </mxCell>
        <mxCell id="uIo9gQGOJGdy33vKIJ3K-34" value="" style="endArrow=diamondThin;endFill=1;endSize=24;html=1;rounded=0;entryX=1;entryY=0.5;entryDx=0;entryDy=0;exitX=0;exitY=0.5;exitDx=0;exitDy=0;" parent="1" source="4PrEoWA6GMoAb4wmeO9J-50" target="4PrEoWA6GMoAb4wmeO9J-11" edge="1">
          <mxGeometry width="160" relative="1" as="geometry">
            <mxPoint x="500" y="160" as="sourcePoint" />
            <mxPoint x="660" y="160" as="targetPoint" />
          </mxGeometry>
        </mxCell>
        <mxCell id="uIo9gQGOJGdy33vKIJ3K-35" value="" style="endArrow=diamondThin;endFill=1;endSize=24;html=1;rounded=0;entryX=0.5;entryY=0;entryDx=0;entryDy=0;exitX=0.5;exitY=1;exitDx=0;exitDy=0;" parent="1" source="4PrEoWA6GMoAb4wmeO9J-11" target="uIo9gQGOJGdy33vKIJ3K-32" edge="1">
          <mxGeometry width="160" relative="1" as="geometry">
            <mxPoint x="520" y="160" as="sourcePoint" />
            <mxPoint x="680" y="160" as="targetPoint" />
          </mxGeometry>
        </mxCell>
        <mxCell id="uIo9gQGOJGdy33vKIJ3K-36" value="" style="endArrow=diamondThin;endFill=1;endSize=24;html=1;rounded=0;entryX=0.313;entryY=0.003;entryDx=0;entryDy=0;entryPerimeter=0;exitX=0.5;exitY=1;exitDx=0;exitDy=0;" parent="1" source="4PrEoWA6GMoAb4wmeO9J-12" target="uIo9gQGOJGdy33vKIJ3K-32" edge="1">
          <mxGeometry width="160" relative="1" as="geometry">
            <mxPoint x="600" y="240" as="sourcePoint" />
            <mxPoint x="760" y="240" as="targetPoint" />
          </mxGeometry>
        </mxCell>
        <mxCell id="uIo9gQGOJGdy33vKIJ3K-37" value="" style="endArrow=diamondThin;endFill=1;endSize=24;html=1;rounded=0;entryX=0;entryY=0;entryDx=0;entryDy=0;exitX=0.5;exitY=1;exitDx=0;exitDy=0;" parent="1" source="4PrEoWA6GMoAb4wmeO9J-3" target="uIo9gQGOJGdy33vKIJ3K-32" edge="1">
          <mxGeometry width="160" relative="1" as="geometry">
            <mxPoint x="600" y="240" as="sourcePoint" />
            <mxPoint x="760" y="240" as="targetPoint" />
          </mxGeometry>
        </mxCell>
        <mxCell id="uIo9gQGOJGdy33vKIJ3K-39" value="" style="endArrow=diamondThin;endFill=1;endSize=24;html=1;rounded=0;entryX=0;entryY=0.25;entryDx=0;entryDy=0;exitX=0.5;exitY=1;exitDx=0;exitDy=0;" parent="1" source="4PrEoWA6GMoAb4wmeO9J-71" target="uIo9gQGOJGdy33vKIJ3K-32" edge="1">
          <mxGeometry width="160" relative="1" as="geometry">
            <mxPoint x="600" y="240" as="sourcePoint" />
            <mxPoint x="760" y="240" as="targetPoint" />
          </mxGeometry>
        </mxCell>
        <mxCell id="uIo9gQGOJGdy33vKIJ3K-41" value="" style="endArrow=diamondThin;endFill=1;endSize=24;html=1;rounded=0;entryX=0.75;entryY=0;entryDx=0;entryDy=0;exitX=0;exitY=0.5;exitDx=0;exitDy=0;" parent="1" source="4PrEoWA6GMoAb4wmeO9J-83" target="uIo9gQGOJGdy33vKIJ3K-32" edge="1">
          <mxGeometry width="160" relative="1" as="geometry">
            <mxPoint x="610" y="110" as="sourcePoint" />
            <mxPoint x="660" y="230" as="targetPoint" />
            <Array as="points">
              <mxPoint x="610" y="110" />
            </Array>
          </mxGeometry>
        </mxCell>
        <mxCell id="uIo9gQGOJGdy33vKIJ3K-42" value="Program" style="whiteSpace=wrap;html=1;" parent="1" vertex="1">
          <mxGeometry x="70" y="260" width="120" height="60" as="geometry" />
        </mxCell>
        <mxCell id="uIo9gQGOJGdy33vKIJ3K-43" value="Use" style="endArrow=open;endSize=12;dashed=1;html=1;rounded=0;entryX=0;entryY=0.5;entryDx=0;entryDy=0;exitX=1;exitY=0.5;exitDx=0;exitDy=0;" parent="1" source="uIo9gQGOJGdy33vKIJ3K-42" target="uIo9gQGOJGdy33vKIJ3K-32" edge="1">
          <mxGeometry width="160" relative="1" as="geometry">
            <mxPoint x="530" y="320" as="sourcePoint" />
            <mxPoint x="690" y="320" as="targetPoint" />
          </mxGeometry>
        </mxCell>
        <mxCell id="uIo9gQGOJGdy33vKIJ3K-44" value="Store" style="whiteSpace=wrap;html=1;" parent="1" vertex="1">
          <mxGeometry x="350" y="370" width="120" height="60" as="geometry" />
        </mxCell>
        <mxCell id="uIo9gQGOJGdy33vKIJ3K-46" value="Item" style="html=1;whiteSpace=wrap;" parent="1" vertex="1">
          <mxGeometry x="444" y="485" width="110" height="55" as="geometry" />
        </mxCell>
        <mxCell id="uIo9gQGOJGdy33vKIJ3K-48" value="Customer" style="whiteSpace=wrap;html=1;" parent="1" vertex="1">
          <mxGeometry x="252" y="485" width="120" height="60" as="geometry" />
        </mxCell>
        <mxCell id="uIo9gQGOJGdy33vKIJ3K-49" value="" style="endArrow=diamondThin;endFill=0;endSize=24;html=1;rounded=0;entryX=0.5;entryY=1;entryDx=0;entryDy=0;exitX=0.5;exitY=0;exitDx=0;exitDy=0;" parent="1" source="uIo9gQGOJGdy33vKIJ3K-44" target="uIo9gQGOJGdy33vKIJ3K-32" edge="1">
          <mxGeometry width="160" relative="1" as="geometry">
            <mxPoint x="510" y="520" as="sourcePoint" />
            <mxPoint x="670" y="520" as="targetPoint" />
          </mxGeometry>
        </mxCell>
        <mxCell id="uIo9gQGOJGdy33vKIJ3K-50" value="" style="endArrow=diamondThin;endFill=1;endSize=24;html=1;rounded=0;entryX=0.25;entryY=1;entryDx=0;entryDy=0;exitX=0.5;exitY=0;exitDx=0;exitDy=0;" parent="1" source="uIo9gQGOJGdy33vKIJ3K-48" target="uIo9gQGOJGdy33vKIJ3K-44" edge="1">
          <mxGeometry width="160" relative="1" as="geometry">
            <mxPoint x="390" y="510" as="sourcePoint" />
            <mxPoint x="670" y="520" as="targetPoint" />
          </mxGeometry>
        </mxCell>
        <mxCell id="uIo9gQGOJGdy33vKIJ3K-51" value="" style="endArrow=diamondThin;endFill=1;endSize=24;html=1;rounded=0;exitX=0.436;exitY=0.032;exitDx=0;exitDy=0;exitPerimeter=0;entryX=0.75;entryY=1;entryDx=0;entryDy=0;" parent="1" source="uIo9gQGOJGdy33vKIJ3K-46" target="uIo9gQGOJGdy33vKIJ3K-44" edge="1">
          <mxGeometry width="160" relative="1" as="geometry">
            <mxPoint x="510" y="520" as="sourcePoint" />
            <mxPoint x="440" y="470" as="targetPoint" />
          </mxGeometry>
        </mxCell>
        <mxCell id="uIo9gQGOJGdy33vKIJ3K-53" value="«enumeration»&lt;br&gt;Category" style="html=1;whiteSpace=wrap;" parent="1" vertex="1">
          <mxGeometry x="650" y="487.5" width="110" height="50" as="geometry" />
        </mxCell>
        <mxCell id="uIo9gQGOJGdy33vKIJ3K-54" value="Use" style="endArrow=open;endSize=12;dashed=1;html=1;rounded=0;exitX=1;exitY=0.5;exitDx=0;exitDy=0;entryX=0;entryY=0.5;entryDx=0;entryDy=0;" parent="1" source="uIo9gQGOJGdy33vKIJ3K-46" target="uIo9gQGOJGdy33vKIJ3K-53" edge="1">
          <mxGeometry width="160" relative="1" as="geometry">
            <mxPoint x="747" y="835" as="sourcePoint" />
            <mxPoint x="747" y="885" as="targetPoint" />
          </mxGeometry>
        </mxCell>
        <mxCell id="uIo9gQGOJGdy33vKIJ3K-56" value="" style="endArrow=diamondThin;endFill=1;endSize=24;html=1;rounded=0;entryX=1;entryY=0.5;entryDx=0;entryDy=0;exitX=0.5;exitY=0;exitDx=0;exitDy=0;" parent="1" source="_OMWkdVbkcno03ulWTb--11" target="_OMWkdVbkcno03ulWTb--10" edge="1">
          <mxGeometry width="160" relative="1" as="geometry">
            <mxPoint x="490" y="510" as="sourcePoint" />
            <mxPoint x="650" y="510" as="targetPoint" />
          </mxGeometry>
        </mxCell>
        <mxCell id="uIo9gQGOJGdy33vKIJ3K-57" value="" style="endArrow=diamondThin;endFill=1;endSize=24;html=1;rounded=0;entryX=1;entryY=1;entryDx=0;entryDy=0;exitX=0.5;exitY=0;exitDx=0;exitDy=0;" parent="1" source="_OMWkdVbkcno03ulWTb--9" target="_OMWkdVbkcno03ulWTb--10" edge="1">
          <mxGeometry width="160" relative="1" as="geometry">
            <mxPoint x="490" y="510" as="sourcePoint" />
            <mxPoint x="650" y="510" as="targetPoint" />
          </mxGeometry>
        </mxCell>
        <mxCell id="uIo9gQGOJGdy33vKIJ3K-58" value="" style="endArrow=diamondThin;endFill=1;endSize=24;html=1;rounded=0;entryX=0.5;entryY=1;entryDx=0;entryDy=0;exitX=0.5;exitY=0;exitDx=0;exitDy=0;" parent="1" source="mFB_95r138rPl2xuF4Oa-31" target="_OMWkdVbkcno03ulWTb--10" edge="1">
          <mxGeometry width="160" relative="1" as="geometry">
            <mxPoint x="490" y="510" as="sourcePoint" />
            <mxPoint x="650" y="510" as="targetPoint" />
          </mxGeometry>
        </mxCell>
        <mxCell id="uIo9gQGOJGdy33vKIJ3K-59" value="" style="endArrow=diamondThin;endFill=1;endSize=24;html=1;rounded=0;entryX=0.25;entryY=1;entryDx=0;entryDy=0;exitX=0.5;exitY=0;exitDx=0;exitDy=0;" parent="1" source="_OMWkdVbkcno03ulWTb--6" target="_OMWkdVbkcno03ulWTb--10" edge="1">
          <mxGeometry width="160" relative="1" as="geometry">
            <mxPoint x="490" y="510" as="sourcePoint" />
            <mxPoint x="650" y="510" as="targetPoint" />
          </mxGeometry>
        </mxCell>
        <mxCell id="uIo9gQGOJGdy33vKIJ3K-60" value="1" style="text;html=1;align=center;verticalAlign=middle;resizable=0;points=[];autosize=1;strokeColor=none;fillColor=none;" parent="1" vertex="1">
          <mxGeometry x="340" y="616" width="30" height="30" as="geometry" />
        </mxCell>
        <mxCell id="uIo9gQGOJGdy33vKIJ3K-61" value="1" style="text;html=1;align=center;verticalAlign=middle;resizable=0;points=[];autosize=1;strokeColor=none;fillColor=none;" parent="1" vertex="1">
          <mxGeometry x="384" y="600" width="30" height="30" as="geometry" />
        </mxCell>
      </root>
    </mxGraphModel>
  </diagram>
</mxfile>
